<svg xmlns="http://www.w3.org/2000/svg" width="12" height="20" viewBox="0 0 12 20" fill="none">
  <mask id="mask0_140_497" style="mask-type:alpha" maskUnits="userSpaceOnUse" x="-4" y="0" width="20" height="20">
    <rect x="-4" width="20" height="20" fill="#926296"/>
  </mask>
  <g mask="url(#mask0_140_497)">
    <path d="M5.41673 11.9166L3.25006 9.74992C2.98617 9.48603 2.92714 9.18395 3.07298 8.84367C3.21881 8.50339 3.47923 8.33325 3.85423 8.33325H8.14589C8.52089 8.33325 8.78131 8.50339 8.92714 8.84367C9.07298 9.18395 9.01395 9.48603 8.75006 9.74992L6.58339 11.9166C6.50006 11.9999 6.40978 12.0624 6.31256 12.1041C6.21534 12.1458 6.11117 12.1666 6.00006 12.1666C5.88895 12.1666 5.78478 12.1458 5.68756 12.1041C5.59034 12.0624 5.50006 11.9999 5.41673 11.9166Z" fill="#926296"/>
  </g>
</svg>