<svg width="24" height="24" viewBox="0 0 24 24" fill="none" xmlns="http://www.w3.org/2000/svg">
<g id="arrow_right_alt">
<mask id="mask0_102_698" style="mask-type:alpha" maskUnits="userSpaceOnUse" x="0" y="0" width="24" height="24">
<rect id="Bounding box" width="24" height="24" fill="#D9D9D9"/>
</mask>
<g mask="url(#mask0_102_698)">
<path id="arrow_right_alt_2" d="M13.3 17.275C13.1 17.075 13.0042 16.8334 13.0125 16.55C13.0208 16.2667 13.125 16.025 13.325 15.825L16.15 13H5C4.71667 13 4.47917 12.9042 4.2875 12.7125C4.09583 12.5209 4 12.2834 4 12C4 11.7167 4.09583 11.4792 4.2875 11.2875C4.47917 11.0959 4.71667 11 5 11H16.15L13.3 8.15005C13.1 7.95005 13 7.71255 13 7.43755C13 7.16255 13.1 6.92505 13.3 6.72505C13.5 6.52505 13.7375 6.42505 14.0125 6.42505C14.2875 6.42505 14.525 6.52505 14.725 6.72505L19.3 11.3C19.4 11.4 19.4708 11.5084 19.5125 11.625C19.5542 11.7417 19.575 11.8667 19.575 12C19.575 12.1334 19.5542 12.2584 19.5125 12.375C19.4708 12.4917 19.4 12.6 19.3 12.7L14.7 17.3C14.5167 17.4834 14.2875 17.575 14.0125 17.575C13.7375 17.575 13.5 17.475 13.3 17.275Z" fill="#DBCFE3"/>
</g>
</g>
</svg>
