<svg width="17" height="17" viewBox="0 0 17 17" fill="none" xmlns="http://www.w3.org/2000/svg">
<g id="cancel">
<mask id="mask0_204_740" style="mask-type:alpha" maskUnits="userSpaceOnUse" x="0" y="0" width="17" height="17">
<rect id="Bounding box" width="17" height="17" fill="#D9D9D9"/>
</mask>
<g mask="url(#mask0_204_740)">
<path id="cancel_2" d="M8.49984 9.49175L10.554 11.5459C10.6839 11.6758 10.8491 11.7407 11.0498 11.7407C11.2505 11.7407 11.4158 11.6758 11.5457 11.5459C11.6755 11.4161 11.7405 11.2508 11.7405 11.0501C11.7405 10.8494 11.6755 10.6841 11.5457 10.5542L9.4915 8.50008L11.5457 6.44591C11.6755 6.31605 11.7405 6.15078 11.7405 5.95008C11.7405 5.74939 11.6755 5.58411 11.5457 5.45425C11.4158 5.32439 11.2505 5.25946 11.0498 5.25946C10.8491 5.25946 10.6839 5.32439 10.554 5.45425L8.49984 7.50841L6.44567 5.45425C6.31581 5.32439 6.15053 5.25946 5.94984 5.25946C5.74914 5.25946 5.58387 5.32439 5.454 5.45425C5.32414 5.58411 5.25921 5.74939 5.25921 5.95008C5.25921 6.15078 5.32414 6.31605 5.454 6.44591L7.50817 8.50008L5.454 10.5542C5.32414 10.6841 5.25921 10.8494 5.25921 11.0501C5.25921 11.2508 5.32414 11.4161 5.454 11.5459C5.58387 11.6758 5.74914 11.7407 5.94984 11.7407C6.15053 11.7407 6.31581 11.6758 6.44567 11.5459L8.49984 9.49175ZM8.49984 15.5834C7.51998 15.5834 6.59914 15.3975 5.73734 15.0256C4.87553 14.6537 4.12588 14.149 3.48838 13.5115C2.85088 12.874 2.34619 12.1244 1.97432 11.2626C1.60244 10.4008 1.4165 9.47994 1.4165 8.50008C1.4165 7.52022 1.60244 6.59939 1.97432 5.73758C2.34619 4.87578 2.85088 4.12612 3.48838 3.48862C4.12588 2.85112 4.87553 2.34644 5.73734 1.97456C6.59914 1.60269 7.51998 1.41675 8.49984 1.41675C9.4797 1.41675 10.4005 1.60269 11.2623 1.97456C12.1241 2.34644 12.8738 2.85112 13.5113 3.48862C14.1488 4.12612 14.6535 4.87578 15.0254 5.73758C15.3972 6.59939 15.5832 7.52022 15.5832 8.50008C15.5832 9.47994 15.3972 10.4008 15.0254 11.2626C14.6535 12.1244 14.1488 12.874 13.5113 13.5115C12.8738 14.149 12.1241 14.6537 11.2623 15.0256C10.4005 15.3975 9.4797 15.5834 8.49984 15.5834Z" fill="white"/>
</g>
</g>
</svg>
