<svg width="17" height="17" viewBox="0 0 17 17" fill="none" xmlns="http://www.w3.org/2000/svg">
<g id="check_circle">
<mask id="mask0_103_881" style="mask-type:alpha" maskUnits="userSpaceOnUse" x="0" y="0" width="17" height="17">
<rect id="Bounding box" width="17" height="17" fill="#D9D9D9"/>
</mask>
<g mask="url(#mask0_103_881)">
<path id="check_circle_2" d="M7.50817 9.77508L5.98525 8.25216C5.85539 8.1223 5.69011 8.05737 5.48942 8.05737C5.28873 8.05737 5.12345 8.1223 4.99359 8.25216C4.86373 8.38203 4.7988 8.5473 4.7988 8.748C4.7988 8.94869 4.86373 9.11397 4.99359 9.24383L7.01234 11.2626C7.154 11.4042 7.31928 11.4751 7.50817 11.4751C7.69706 11.4751 7.86234 11.4042 8.004 11.2626L12.0061 7.2605C12.1359 7.13064 12.2009 6.96536 12.2009 6.76466C12.2009 6.56397 12.1359 6.39869 12.0061 6.26883C11.8762 6.13897 11.7109 6.07404 11.5103 6.07404C11.3096 6.07404 11.1443 6.13897 11.0144 6.26883L7.50817 9.77508ZM8.49984 15.5834C7.51998 15.5834 6.59914 15.3975 5.73734 15.0256C4.87553 14.6537 4.12588 14.149 3.48838 13.5115C2.85088 12.874 2.34619 12.1244 1.97432 11.2626C1.60244 10.4008 1.4165 9.47994 1.4165 8.50008C1.4165 7.52022 1.60244 6.59939 1.97432 5.73758C2.34619 4.87578 2.85088 4.12612 3.48838 3.48862C4.12588 2.85112 4.87553 2.34644 5.73734 1.97456C6.59914 1.60269 7.51998 1.41675 8.49984 1.41675C9.4797 1.41675 10.4005 1.60269 11.2623 1.97456C12.1241 2.34644 12.8738 2.85112 13.5113 3.48862C14.1488 4.12612 14.6535 4.87578 15.0254 5.73758C15.3972 6.59939 15.5832 7.52022 15.5832 8.50008C15.5832 9.47994 15.3972 10.4008 15.0254 11.2626C14.6535 12.1244 14.1488 12.874 13.5113 13.5115C12.8738 14.149 12.1241 14.6537 11.2623 15.0256C10.4005 15.3975 9.4797 15.5834 8.49984 15.5834Z" fill="white"/>
</g>
</g>
</svg>
