<svg width="24" height="25" viewBox="0 0 24 25" fill="none" xmlns="http://www.w3.org/2000/svg">
<g id="date from">
<mask id="mask0_174_753" style="mask-type:alpha" maskUnits="userSpaceOnUse" x="0" y="0" width="24" height="25">
<rect id="Bounding box" y="0.641724" width="24" height="24" fill="#D9D9D9"/>
</mask>
<g mask="url(#mask0_174_753)">
<path id="event_upcoming" d="M19 21.6417H16C15.7167 21.6417 15.4792 21.5459 15.2875 21.3542C15.0958 21.1626 15 20.9251 15 20.6417C15 20.3584 15.0958 20.1209 15.2875 19.9292C15.4792 19.7376 15.7167 19.6417 16 19.6417H19V9.64172H5V12.6417C5 12.9251 4.90417 13.1626 4.7125 13.3542C4.52083 13.5459 4.28333 13.6417 4 13.6417C3.71667 13.6417 3.47917 13.5459 3.2875 13.3542C3.09583 13.1626 3 12.9251 3 12.6417V5.64172C3 5.09172 3.19583 4.62089 3.5875 4.22922C3.97917 3.83756 4.45 3.64172 5 3.64172H6V2.64172C6 2.35839 6.09583 2.12089 6.2875 1.92922C6.47917 1.73756 6.71667 1.64172 7 1.64172C7.28333 1.64172 7.52083 1.73756 7.7125 1.92922C7.90417 2.12089 8 2.35839 8 2.64172V3.64172H16V2.64172C16 2.35839 16.0958 2.12089 16.2875 1.92922C16.4792 1.73756 16.7167 1.64172 17 1.64172C17.2833 1.64172 17.5208 1.73756 17.7125 1.92922C17.9042 2.12089 18 2.35839 18 2.64172V3.64172H19C19.55 3.64172 20.0208 3.83756 20.4125 4.22922C20.8042 4.62089 21 5.09172 21 5.64172V19.6417C21 20.1917 20.8042 20.6626 20.4125 21.0542C20.0208 21.4459 19.55 21.6417 19 21.6417ZM4.425 20.6417H11.6C11.8833 20.6417 12.1208 20.5459 12.3125 20.3542C12.5042 20.1626 12.6 19.9251 12.6 19.6417C12.6 19.3584 12.5042 19.1209 12.3125 18.9292C12.1208 18.7376 11.8833 18.6417 11.6 18.6417H4.425L6.3 16.7417C6.48333 16.5584 6.57917 16.3292 6.5875 16.0542C6.59583 15.7792 6.5 15.5417 6.3 15.3417C6.11667 15.1584 5.88333 15.0667 5.6 15.0667C5.31667 15.0667 5.08333 15.1584 4.9 15.3417L1.3 18.9417C1.1 19.1417 1 19.3751 1 19.6417C1 19.9084 1.1 20.1417 1.3 20.3417L4.9 23.9417C5.08333 24.1251 5.3125 24.2209 5.5875 24.2292C5.8625 24.2376 6.1 24.1417 6.3 23.9417C6.48333 23.7584 6.575 23.5251 6.575 23.2417C6.575 22.9584 6.48333 22.7251 6.3 22.5417L4.425 20.6417ZM5 7.64172H19V5.64172H5V7.64172Z" fill="#926296"/>
</g>
</g>
</svg>
