<svg width="25" height="25" viewBox="0 0 25 25" fill="none" xmlns="http://www.w3.org/2000/svg">
<g id="date to">
<mask id="mask0_174_746" style="mask-type:alpha" maskUnits="userSpaceOnUse" x="0" y="0" width="25" height="25">
<rect id="Bounding box" x="0.264099" y="0.641724" width="24" height="24" fill="#D9D9D9"/>
</mask>
<g mask="url(#mask0_174_746)">
<path id="event_upcoming" d="M19.2641 21.6417H16.2641C15.9808 21.6417 15.7433 21.5459 15.5516 21.3542C15.3599 21.1626 15.2641 20.9251 15.2641 20.6417C15.2641 20.3584 15.3599 20.1209 15.5516 19.9292C15.7433 19.7376 15.9808 19.6417 16.2641 19.6417H19.2641V9.64172H5.2641V12.6417C5.2641 12.9251 5.16827 13.1626 4.9766 13.3542C4.78493 13.5459 4.54743 13.6417 4.2641 13.6417C3.98077 13.6417 3.74327 13.5459 3.5516 13.3542C3.35993 13.1626 3.2641 12.9251 3.2641 12.6417V5.64172C3.2641 5.09172 3.45993 4.62089 3.8516 4.22922C4.24327 3.83756 4.7141 3.64172 5.2641 3.64172H6.2641V2.64172C6.2641 2.35839 6.35993 2.12089 6.5516 1.92922C6.74327 1.73756 6.98077 1.64172 7.2641 1.64172C7.54743 1.64172 7.78493 1.73756 7.9766 1.92922C8.16827 2.12089 8.2641 2.35839 8.2641 2.64172V3.64172H16.2641V2.64172C16.2641 2.35839 16.3599 2.12089 16.5516 1.92922C16.7433 1.73756 16.9808 1.64172 17.2641 1.64172C17.5474 1.64172 17.7849 1.73756 17.9766 1.92922C18.1683 2.12089 18.2641 2.35839 18.2641 2.64172V3.64172H19.2641C19.8141 3.64172 20.2849 3.83756 20.6766 4.22922C21.0683 4.62089 21.2641 5.09172 21.2641 5.64172V19.6417C21.2641 20.1917 21.0683 20.6626 20.6766 21.0542C20.2849 21.4459 19.8141 21.6417 19.2641 21.6417ZM9.4391 20.6417H2.2641C1.98077 20.6417 1.74327 20.5459 1.5516 20.3542C1.35993 20.1626 1.2641 19.9251 1.2641 19.6417C1.2641 19.3584 1.35993 19.1209 1.5516 18.9292C1.74327 18.7376 1.98077 18.6417 2.2641 18.6417H9.4391L7.5641 16.7417C7.38077 16.5584 7.28493 16.3292 7.2766 16.0542C7.26827 15.7792 7.3641 15.5417 7.5641 15.3417C7.74743 15.1584 7.98077 15.0667 8.2641 15.0667C8.54743 15.0667 8.78077 15.1584 8.9641 15.3417L12.5641 18.9417C12.7641 19.1417 12.8641 19.3751 12.8641 19.6417C12.8641 19.9084 12.7641 20.1417 12.5641 20.3417L8.9641 23.9417C8.78077 24.1251 8.5516 24.2209 8.2766 24.2292C8.0016 24.2376 7.7641 24.1417 7.5641 23.9417C7.38077 23.7584 7.2891 23.5251 7.2891 23.2417C7.2891 22.9584 7.38077 22.7251 7.5641 22.5417L9.4391 20.6417ZM5.2641 7.64172H19.2641V5.64172H5.2641V7.64172Z" fill="#926296"/>
</g>
</g>
</svg>
