<svg width="166" height="25" viewBox="0 0 166 25" fill="none" xmlns="http://www.w3.org/2000/svg">
<path d="M46.9922 24.33C46.5742 24.33 46.2552 24.264 46.0352 24.132C45.8152 24.022 45.6722 23.857 45.6062 23.637C45.5622 23.395 45.5402 23.12 45.5402 22.812V2.74798C45.5402 2.46198 45.5732 2.21999 45.6392 2.02199C45.7272 1.80198 45.8702 1.62598 46.0682 1.49398C46.2882 1.36198 46.6072 1.29598 47.0252 1.29598H54.3182C55.3962 1.29598 56.3752 1.46098 57.2552 1.79098C58.1572 2.09898 58.9382 2.56098 59.5982 3.17698C60.2582 3.79298 60.7642 4.57398 61.1162 5.51999C61.4902 6.44399 61.6772 7.52199 61.6772 8.75398C61.6772 9.52398 61.5562 10.327 61.3142 11.163C61.0722 11.977 60.6982 12.747 60.1922 13.473C59.7082 14.199 59.0812 14.804 58.3112 15.288C57.5412 15.772 56.6062 16.047 55.5062 16.113H48.5102V22.845C48.5102 23.153 48.4662 23.417 48.3782 23.637C48.3122 23.857 48.1692 24.022 47.9492 24.132C47.7512 24.264 47.4322 24.33 46.9922 24.33ZM61.1492 23.967C60.6872 24.275 60.2912 24.374 59.9612 24.264C59.6532 24.154 59.3562 23.89 59.0702 23.472L53.7902 15.024L57.0572 14.529L61.6112 21.789C61.8312 22.141 61.9632 22.438 62.0072 22.68C62.0732 22.922 62.0292 23.142 61.8752 23.34C61.7432 23.538 61.5012 23.747 61.1492 23.967ZM48.5102 13.209H55.0442C55.5502 13.209 56.0232 13.121 56.4632 12.945C56.9032 12.747 57.2882 12.461 57.6182 12.087C57.9482 11.713 58.2122 11.251 58.4102 10.701C58.6082 10.151 58.7072 9.49098 58.7072 8.72098C58.7072 7.77498 58.5312 6.97198 58.1792 6.31199C57.8492 5.65198 57.3542 5.15698 56.6942 4.82698C56.0342 4.47499 55.2202 4.29899 54.2522 4.29899H48.5102V13.209Z" fill="url(#paint0_linear_26_887)"/>
<path d="M46.9922 24.33C46.5742 24.33 46.2552 24.264 46.0352 24.132C45.8152 24.022 45.6722 23.857 45.6062 23.637C45.5622 23.395 45.5402 23.12 45.5402 22.812V2.74798C45.5402 2.46198 45.5732 2.21999 45.6392 2.02199C45.7272 1.80198 45.8702 1.62598 46.0682 1.49398C46.2882 1.36198 46.6072 1.29598 47.0252 1.29598H54.3182C55.3962 1.29598 56.3752 1.46098 57.2552 1.79098C58.1572 2.09898 58.9382 2.56098 59.5982 3.17698C60.2582 3.79298 60.7642 4.57398 61.1162 5.51999C61.4902 6.44399 61.6772 7.52199 61.6772 8.75398C61.6772 9.52398 61.5562 10.327 61.3142 11.163C61.0722 11.977 60.6982 12.747 60.1922 13.473C59.7082 14.199 59.0812 14.804 58.3112 15.288C57.5412 15.772 56.6062 16.047 55.5062 16.113H48.5102V22.845C48.5102 23.153 48.4662 23.417 48.3782 23.637C48.3122 23.857 48.1692 24.022 47.9492 24.132C47.7512 24.264 47.4322 24.33 46.9922 24.33ZM61.1492 23.967C60.6872 24.275 60.2912 24.374 59.9612 24.264C59.6532 24.154 59.3562 23.89 59.0702 23.472L53.7902 15.024L57.0572 14.529L61.6112 21.789C61.8312 22.141 61.9632 22.438 62.0072 22.68C62.0732 22.922 62.0292 23.142 61.8752 23.34C61.7432 23.538 61.5012 23.747 61.1492 23.967ZM48.5102 13.209H55.0442C55.5502 13.209 56.0232 13.121 56.4632 12.945C56.9032 12.747 57.2882 12.461 57.6182 12.087C57.9482 11.713 58.2122 11.251 58.4102 10.701C58.6082 10.151 58.7072 9.49098 58.7072 8.72098C58.7072 7.77498 58.5312 6.97198 58.1792 6.31199C57.8492 5.65198 57.3542 5.15698 56.6942 4.82698C56.0342 4.47499 55.2202 4.29899 54.2522 4.29899H48.5102V13.209Z" fill="#8C6193" fill-opacity="0.25"/>
<path d="M70.7685 24.495C69.4485 24.495 68.2715 24.275 67.2375 23.835C66.2035 23.395 65.3235 22.801 64.5975 22.053C63.8935 21.283 63.3545 20.403 62.9805 19.413C62.6065 18.423 62.4195 17.356 62.4195 16.212C62.4195 14.694 62.7715 13.341 63.4755 12.153C64.1795 10.965 65.1475 10.03 66.3795 9.34798C67.6335 8.64398 69.0635 8.29199 70.6695 8.29199C71.7695 8.29199 72.7485 8.46798 73.6065 8.81998C74.4865 9.14998 75.2345 9.60098 75.8505 10.173C76.4665 10.745 76.9395 11.383 77.2695 12.087C77.5995 12.791 77.7645 13.495 77.7645 14.199C77.7645 15.321 77.5005 16.113 76.9725 16.575C76.4445 17.015 75.7955 17.235 75.0255 17.235H65.4885C65.4665 18.203 65.7195 19.039 66.2475 19.743C66.7975 20.425 67.4795 20.953 68.2935 21.327C69.1295 21.701 69.9655 21.888 70.8015 21.888C71.4175 21.888 71.9455 21.855 72.3855 21.789C72.8255 21.723 73.2105 21.635 73.5405 21.525C73.8705 21.415 74.1565 21.305 74.3985 21.195C74.6405 21.085 74.8495 20.975 75.0255 20.865C75.2235 20.755 75.4105 20.678 75.5865 20.634C75.7845 20.59 75.9715 20.612 76.1475 20.7C76.3455 20.766 76.4995 20.909 76.6095 21.129C76.7415 21.305 76.8295 21.47 76.8735 21.624C76.9175 21.778 76.9395 21.943 76.9395 22.119C76.9395 22.427 76.6755 22.768 76.1475 23.142C75.6195 23.516 74.8825 23.835 73.9365 24.099C73.0125 24.363 71.9565 24.495 70.7685 24.495ZM65.4885 15.288H73.7715C74.1895 15.288 74.4975 15.233 74.6955 15.123C74.9155 15.013 75.0255 14.716 75.0255 14.232C75.0255 13.616 74.8385 13.066 74.4645 12.582C74.0905 12.076 73.5735 11.669 72.9135 11.361C72.2755 11.053 71.5385 10.899 70.7025 10.899C69.7345 10.899 68.8435 11.097 68.0295 11.493C67.2375 11.867 66.6105 12.384 66.1485 13.044C65.6865 13.704 65.4665 14.452 65.4885 15.288Z" fill="url(#paint1_linear_26_887)"/>
<path d="M70.7685 24.495C69.4485 24.495 68.2715 24.275 67.2375 23.835C66.2035 23.395 65.3235 22.801 64.5975 22.053C63.8935 21.283 63.3545 20.403 62.9805 19.413C62.6065 18.423 62.4195 17.356 62.4195 16.212C62.4195 14.694 62.7715 13.341 63.4755 12.153C64.1795 10.965 65.1475 10.03 66.3795 9.34798C67.6335 8.64398 69.0635 8.29199 70.6695 8.29199C71.7695 8.29199 72.7485 8.46798 73.6065 8.81998C74.4865 9.14998 75.2345 9.60098 75.8505 10.173C76.4665 10.745 76.9395 11.383 77.2695 12.087C77.5995 12.791 77.7645 13.495 77.7645 14.199C77.7645 15.321 77.5005 16.113 76.9725 16.575C76.4445 17.015 75.7955 17.235 75.0255 17.235H65.4885C65.4665 18.203 65.7195 19.039 66.2475 19.743C66.7975 20.425 67.4795 20.953 68.2935 21.327C69.1295 21.701 69.9655 21.888 70.8015 21.888C71.4175 21.888 71.9455 21.855 72.3855 21.789C72.8255 21.723 73.2105 21.635 73.5405 21.525C73.8705 21.415 74.1565 21.305 74.3985 21.195C74.6405 21.085 74.8495 20.975 75.0255 20.865C75.2235 20.755 75.4105 20.678 75.5865 20.634C75.7845 20.59 75.9715 20.612 76.1475 20.7C76.3455 20.766 76.4995 20.909 76.6095 21.129C76.7415 21.305 76.8295 21.47 76.8735 21.624C76.9175 21.778 76.9395 21.943 76.9395 22.119C76.9395 22.427 76.6755 22.768 76.1475 23.142C75.6195 23.516 74.8825 23.835 73.9365 24.099C73.0125 24.363 71.9565 24.495 70.7685 24.495ZM65.4885 15.288H73.7715C74.1895 15.288 74.4975 15.233 74.6955 15.123C74.9155 15.013 75.0255 14.716 75.0255 14.232C75.0255 13.616 74.8385 13.066 74.4645 12.582C74.0905 12.076 73.5735 11.669 72.9135 11.361C72.2755 11.053 71.5385 10.899 70.7025 10.899C69.7345 10.899 68.8435 11.097 68.0295 11.493C67.2375 11.867 66.6105 12.384 66.1485 13.044C65.6865 13.704 65.4665 14.452 65.4885 15.288Z" fill="#8C6193" fill-opacity="0.25"/>
<path d="M84.2667 24.33C83.5627 24.33 82.9247 24.264 82.3527 24.132C81.8027 24.022 81.3187 23.835 80.9007 23.571C80.4827 23.307 80.1307 22.966 79.8447 22.548C79.5807 22.13 79.3827 21.624 79.2507 21.03C79.1407 20.436 79.0857 19.743 79.0857 18.951V2.45098C79.0857 2.12098 79.1077 1.84598 79.1517 1.62598C79.2177 1.40598 79.3607 1.24098 79.5807 1.13098C79.8007 0.998984 80.1087 0.932983 80.5047 0.932983C80.9447 0.932983 81.2637 0.987984 81.4617 1.09799C81.6817 1.20799 81.8247 1.37298 81.8907 1.59298C81.9567 1.81298 81.9897 2.07698 81.9897 2.38498V18.918C81.9897 19.358 82.0337 19.743 82.1217 20.073C82.2097 20.381 82.3417 20.645 82.5177 20.865C82.7157 21.085 82.9577 21.239 83.2437 21.327C83.5297 21.415 83.8707 21.459 84.2667 21.459C84.5307 21.459 84.7507 21.492 84.9267 21.558C85.1247 21.624 85.2787 21.756 85.3887 21.954C85.4987 22.152 85.5537 22.46 85.5537 22.878C85.5537 23.318 85.4987 23.648 85.3887 23.868C85.2787 24.066 85.1247 24.187 84.9267 24.231C84.7507 24.297 84.5307 24.33 84.2667 24.33Z" fill="url(#paint2_linear_26_887)"/>
<path d="M84.2667 24.33C83.5627 24.33 82.9247 24.264 82.3527 24.132C81.8027 24.022 81.3187 23.835 80.9007 23.571C80.4827 23.307 80.1307 22.966 79.8447 22.548C79.5807 22.13 79.3827 21.624 79.2507 21.03C79.1407 20.436 79.0857 19.743 79.0857 18.951V2.45098C79.0857 2.12098 79.1077 1.84598 79.1517 1.62598C79.2177 1.40598 79.3607 1.24098 79.5807 1.13098C79.8007 0.998984 80.1087 0.932983 80.5047 0.932983C80.9447 0.932983 81.2637 0.987984 81.4617 1.09799C81.6817 1.20799 81.8247 1.37298 81.8907 1.59298C81.9567 1.81298 81.9897 2.07698 81.9897 2.38498V18.918C81.9897 19.358 82.0337 19.743 82.1217 20.073C82.2097 20.381 82.3417 20.645 82.5177 20.865C82.7157 21.085 82.9577 21.239 83.2437 21.327C83.5297 21.415 83.8707 21.459 84.2667 21.459C84.5307 21.459 84.7507 21.492 84.9267 21.558C85.1247 21.624 85.2787 21.756 85.3887 21.954C85.4987 22.152 85.5537 22.46 85.5537 22.878C85.5537 23.318 85.4987 23.648 85.3887 23.868C85.2787 24.066 85.1247 24.187 84.9267 24.231C84.7507 24.297 84.5307 24.33 84.2667 24.33Z" fill="#8C6193" fill-opacity="0.25"/>
<path d="M100.313 24.297C99.829 24.297 99.477 24.198 99.257 24C99.059 23.802 98.938 23.494 98.894 23.076L99.026 21.426C98.806 21.778 98.465 22.185 98.003 22.647C97.541 23.087 96.936 23.483 96.188 23.835C95.44 24.165 94.527 24.33 93.449 24.33C92.393 24.33 91.403 24.121 90.479 23.703C89.577 23.285 88.774 22.702 88.07 21.954C87.388 21.206 86.849 20.348 86.453 19.38C86.079 18.412 85.892 17.378 85.892 16.278C85.892 15.2 86.079 14.188 86.453 13.242C86.849 12.274 87.399 11.427 88.103 10.701C88.807 9.97499 89.61 9.40299 90.512 8.98499C91.436 8.56698 92.415 8.35798 93.449 8.35798C94.417 8.35798 95.242 8.48998 95.924 8.75398C96.606 8.99598 97.189 9.32598 97.673 9.74399C98.179 10.14 98.619 10.591 98.993 11.097L98.927 9.71098C98.905 9.22698 99.004 8.88599 99.224 8.68798C99.466 8.46798 99.84 8.35798 100.346 8.35798C100.764 8.35798 101.061 8.42398 101.237 8.55598C101.435 8.68798 101.567 8.87498 101.633 9.11698C101.699 9.35898 101.732 9.65598 101.732 10.008V22.746C101.732 23.054 101.699 23.329 101.633 23.571C101.567 23.813 101.435 23.989 101.237 24.099C101.039 24.231 100.731 24.297 100.313 24.297ZM93.944 21.558C94.824 21.558 95.627 21.327 96.353 20.865C97.101 20.403 97.684 19.787 98.102 19.017C98.542 18.225 98.762 17.323 98.762 16.311C98.762 15.277 98.531 14.375 98.069 13.605C97.629 12.813 97.035 12.197 96.287 11.757C95.561 11.295 94.758 11.064 93.878 11.064C92.844 11.064 91.942 11.306 91.172 11.79C90.424 12.252 89.83 12.879 89.39 13.671C88.95 14.463 88.73 15.365 88.73 16.377C88.73 17.367 88.95 18.258 89.39 19.05C89.83 19.82 90.435 20.436 91.205 20.898C91.997 21.338 92.91 21.558 93.944 21.558Z" fill="url(#paint3_linear_26_887)"/>
<path d="M100.313 24.297C99.829 24.297 99.477 24.198 99.257 24C99.059 23.802 98.938 23.494 98.894 23.076L99.026 21.426C98.806 21.778 98.465 22.185 98.003 22.647C97.541 23.087 96.936 23.483 96.188 23.835C95.44 24.165 94.527 24.33 93.449 24.33C92.393 24.33 91.403 24.121 90.479 23.703C89.577 23.285 88.774 22.702 88.07 21.954C87.388 21.206 86.849 20.348 86.453 19.38C86.079 18.412 85.892 17.378 85.892 16.278C85.892 15.2 86.079 14.188 86.453 13.242C86.849 12.274 87.399 11.427 88.103 10.701C88.807 9.97499 89.61 9.40299 90.512 8.98499C91.436 8.56698 92.415 8.35798 93.449 8.35798C94.417 8.35798 95.242 8.48998 95.924 8.75398C96.606 8.99598 97.189 9.32598 97.673 9.74399C98.179 10.14 98.619 10.591 98.993 11.097L98.927 9.71098C98.905 9.22698 99.004 8.88599 99.224 8.68798C99.466 8.46798 99.84 8.35798 100.346 8.35798C100.764 8.35798 101.061 8.42398 101.237 8.55598C101.435 8.68798 101.567 8.87498 101.633 9.11698C101.699 9.35898 101.732 9.65598 101.732 10.008V22.746C101.732 23.054 101.699 23.329 101.633 23.571C101.567 23.813 101.435 23.989 101.237 24.099C101.039 24.231 100.731 24.297 100.313 24.297ZM93.944 21.558C94.824 21.558 95.627 21.327 96.353 20.865C97.101 20.403 97.684 19.787 98.102 19.017C98.542 18.225 98.762 17.323 98.762 16.311C98.762 15.277 98.531 14.375 98.069 13.605C97.629 12.813 97.035 12.197 96.287 11.757C95.561 11.295 94.758 11.064 93.878 11.064C92.844 11.064 91.942 11.306 91.172 11.79C90.424 12.252 89.83 12.879 89.39 13.671C88.95 14.463 88.73 15.365 88.73 16.377C88.73 17.367 88.95 18.258 89.39 19.05C89.83 19.82 90.435 20.436 91.205 20.898C91.997 21.338 92.91 21.558 93.944 21.558Z" fill="#8C6193" fill-opacity="0.25"/>
<path d="M112.002 24.33C110.924 24.33 109.945 24.132 109.065 23.736C108.185 23.34 107.437 22.779 106.821 22.053C106.205 21.327 105.721 20.48 105.369 19.512C105.039 18.544 104.885 17.477 104.907 16.311C104.907 15.167 105.072 14.111 105.402 13.143C105.732 12.153 106.205 11.306 106.821 10.602C107.459 9.87599 108.207 9.31499 109.065 8.91898C109.945 8.52298 110.924 8.32498 112.002 8.32498C113.014 8.32498 113.96 8.52298 114.84 8.91898C115.742 9.31499 116.523 9.87599 117.183 10.602C117.865 11.306 118.393 12.142 118.767 13.11C119.163 14.078 119.361 15.134 119.361 16.278C119.361 17.444 119.163 18.522 118.767 19.512C118.393 20.48 117.865 21.327 117.183 22.053C116.523 22.779 115.742 23.34 114.84 23.736C113.96 24.132 113.014 24.33 112.002 24.33ZM111.573 21.525C112.497 21.525 113.333 21.305 114.081 20.865C114.829 20.425 115.412 19.82 115.83 19.05C116.27 18.258 116.49 17.356 116.49 16.344C116.49 15.31 116.27 14.408 115.83 13.638C115.412 12.846 114.829 12.23 114.081 11.79C113.355 11.35 112.519 11.13 111.573 11.13C110.649 11.13 109.813 11.35 109.065 11.79C108.339 12.23 107.756 12.846 107.316 13.638C106.898 14.408 106.689 15.31 106.689 16.344C106.689 17.356 106.898 18.258 107.316 19.05C107.756 19.82 108.339 20.425 109.065 20.865C109.813 21.305 110.649 21.525 111.573 21.525ZM105.138 24.363C104.72 24.363 104.401 24.297 104.181 24.165C103.983 24.055 103.851 23.89 103.785 23.67C103.719 23.428 103.686 23.164 103.686 22.878V2.51698C103.686 2.18699 103.719 1.91198 103.785 1.69198C103.851 1.47198 103.983 1.30698 104.181 1.19698C104.401 1.06498 104.72 0.998985 105.138 0.998985C105.556 0.998985 105.864 1.06498 106.062 1.19698C106.26 1.32898 106.392 1.50498 106.458 1.72499C106.524 1.94498 106.557 2.20898 106.557 2.51698V23.175C106.513 23.593 106.381 23.89 106.161 24.066C105.963 24.264 105.622 24.363 105.138 24.363Z" fill="url(#paint4_linear_26_887)"/>
<path d="M112.002 24.33C110.924 24.33 109.945 24.132 109.065 23.736C108.185 23.34 107.437 22.779 106.821 22.053C106.205 21.327 105.721 20.48 105.369 19.512C105.039 18.544 104.885 17.477 104.907 16.311C104.907 15.167 105.072 14.111 105.402 13.143C105.732 12.153 106.205 11.306 106.821 10.602C107.459 9.87599 108.207 9.31499 109.065 8.91898C109.945 8.52298 110.924 8.32498 112.002 8.32498C113.014 8.32498 113.96 8.52298 114.84 8.91898C115.742 9.31499 116.523 9.87599 117.183 10.602C117.865 11.306 118.393 12.142 118.767 13.11C119.163 14.078 119.361 15.134 119.361 16.278C119.361 17.444 119.163 18.522 118.767 19.512C118.393 20.48 117.865 21.327 117.183 22.053C116.523 22.779 115.742 23.34 114.84 23.736C113.96 24.132 113.014 24.33 112.002 24.33ZM111.573 21.525C112.497 21.525 113.333 21.305 114.081 20.865C114.829 20.425 115.412 19.82 115.83 19.05C116.27 18.258 116.49 17.356 116.49 16.344C116.49 15.31 116.27 14.408 115.83 13.638C115.412 12.846 114.829 12.23 114.081 11.79C113.355 11.35 112.519 11.13 111.573 11.13C110.649 11.13 109.813 11.35 109.065 11.79C108.339 12.23 107.756 12.846 107.316 13.638C106.898 14.408 106.689 15.31 106.689 16.344C106.689 17.356 106.898 18.258 107.316 19.05C107.756 19.82 108.339 20.425 109.065 20.865C109.813 21.305 110.649 21.525 111.573 21.525ZM105.138 24.363C104.72 24.363 104.401 24.297 104.181 24.165C103.983 24.055 103.851 23.89 103.785 23.67C103.719 23.428 103.686 23.164 103.686 22.878V2.51698C103.686 2.18699 103.719 1.91198 103.785 1.69198C103.851 1.47198 103.983 1.30698 104.181 1.19698C104.401 1.06498 104.72 0.998985 105.138 0.998985C105.556 0.998985 105.864 1.06498 106.062 1.19698C106.26 1.32898 106.392 1.50498 106.458 1.72499C106.524 1.94498 106.557 2.20898 106.557 2.51698V23.175C106.513 23.593 106.381 23.89 106.161 24.066C105.963 24.264 105.622 24.363 105.138 24.363Z" fill="#8C6193" fill-opacity="0.25"/>
<path d="M134.356 24.297C133.872 24.297 133.52 24.198 133.3 24C133.102 23.802 132.981 23.494 132.937 23.076L133.069 21.426C132.849 21.778 132.508 22.185 132.046 22.647C131.584 23.087 130.979 23.483 130.231 23.835C129.483 24.165 128.57 24.33 127.492 24.33C126.436 24.33 125.446 24.121 124.522 23.703C123.62 23.285 122.817 22.702 122.113 21.954C121.431 21.206 120.892 20.348 120.496 19.38C120.122 18.412 119.935 17.378 119.935 16.278C119.935 15.2 120.122 14.188 120.496 13.242C120.892 12.274 121.442 11.427 122.146 10.701C122.85 9.97499 123.653 9.40299 124.555 8.98499C125.479 8.56698 126.458 8.35798 127.492 8.35798C128.46 8.35798 129.285 8.48998 129.967 8.75398C130.649 8.99598 131.232 9.32598 131.716 9.74399C132.222 10.14 132.662 10.591 133.036 11.097L132.97 9.71098C132.948 9.22698 133.047 8.88599 133.267 8.68798C133.509 8.46798 133.883 8.35798 134.389 8.35798C134.807 8.35798 135.104 8.42398 135.28 8.55598C135.478 8.68798 135.61 8.87498 135.676 9.11698C135.742 9.35898 135.775 9.65598 135.775 10.008V22.746C135.775 23.054 135.742 23.329 135.676 23.571C135.61 23.813 135.478 23.989 135.28 24.099C135.082 24.231 134.774 24.297 134.356 24.297ZM127.987 21.558C128.867 21.558 129.67 21.327 130.396 20.865C131.144 20.403 131.727 19.787 132.145 19.017C132.585 18.225 132.805 17.323 132.805 16.311C132.805 15.277 132.574 14.375 132.112 13.605C131.672 12.813 131.078 12.197 130.33 11.757C129.604 11.295 128.801 11.064 127.921 11.064C126.887 11.064 125.985 11.306 125.215 11.79C124.467 12.252 123.873 12.879 123.433 13.671C122.993 14.463 122.773 15.365 122.773 16.377C122.773 17.367 122.993 18.258 123.433 19.05C123.873 19.82 124.478 20.436 125.248 20.898C126.04 21.338 126.953 21.558 127.987 21.558Z" fill="url(#paint5_linear_26_887)"/>
<path d="M134.356 24.297C133.872 24.297 133.52 24.198 133.3 24C133.102 23.802 132.981 23.494 132.937 23.076L133.069 21.426C132.849 21.778 132.508 22.185 132.046 22.647C131.584 23.087 130.979 23.483 130.231 23.835C129.483 24.165 128.57 24.33 127.492 24.33C126.436 24.33 125.446 24.121 124.522 23.703C123.62 23.285 122.817 22.702 122.113 21.954C121.431 21.206 120.892 20.348 120.496 19.38C120.122 18.412 119.935 17.378 119.935 16.278C119.935 15.2 120.122 14.188 120.496 13.242C120.892 12.274 121.442 11.427 122.146 10.701C122.85 9.97499 123.653 9.40299 124.555 8.98499C125.479 8.56698 126.458 8.35798 127.492 8.35798C128.46 8.35798 129.285 8.48998 129.967 8.75398C130.649 8.99598 131.232 9.32598 131.716 9.74399C132.222 10.14 132.662 10.591 133.036 11.097L132.97 9.71098C132.948 9.22698 133.047 8.88599 133.267 8.68798C133.509 8.46798 133.883 8.35798 134.389 8.35798C134.807 8.35798 135.104 8.42398 135.28 8.55598C135.478 8.68798 135.61 8.87498 135.676 9.11698C135.742 9.35898 135.775 9.65598 135.775 10.008V22.746C135.775 23.054 135.742 23.329 135.676 23.571C135.61 23.813 135.478 23.989 135.28 24.099C135.082 24.231 134.774 24.297 134.356 24.297ZM127.987 21.558C128.867 21.558 129.67 21.327 130.396 20.865C131.144 20.403 131.727 19.787 132.145 19.017C132.585 18.225 132.805 17.323 132.805 16.311C132.805 15.277 132.574 14.375 132.112 13.605C131.672 12.813 131.078 12.197 130.33 11.757C129.604 11.295 128.801 11.064 127.921 11.064C126.887 11.064 125.985 11.306 125.215 11.79C124.467 12.252 123.873 12.879 123.433 13.671C122.993 14.463 122.773 15.365 122.773 16.377C122.773 17.367 122.993 18.258 123.433 19.05C123.873 19.82 124.478 20.436 125.248 20.898C126.04 21.338 126.953 21.558 127.987 21.558Z" fill="#8C6193" fill-opacity="0.25"/>
<path d="M143.207 24.495C142.679 24.495 142.129 24.44 141.557 24.33C140.985 24.22 140.424 24.066 139.874 23.868C139.346 23.648 138.873 23.395 138.455 23.109C138.059 22.823 137.762 22.504 137.564 22.152C137.454 21.932 137.388 21.734 137.366 21.558C137.344 21.36 137.377 21.173 137.465 20.997C137.553 20.821 137.685 20.645 137.861 20.469C138.081 20.205 138.301 20.084 138.521 20.106C138.741 20.106 139.016 20.249 139.346 20.535C139.588 20.689 139.874 20.865 140.204 21.063C140.534 21.239 140.875 21.404 141.227 21.558C141.579 21.69 141.931 21.811 142.283 21.921C142.657 22.009 143.02 22.053 143.372 22.053C144.384 22.053 145.198 21.866 145.814 21.492C146.43 21.096 146.738 20.579 146.738 19.941C146.738 19.567 146.661 19.248 146.507 18.984C146.353 18.72 146.144 18.5 145.88 18.324C145.616 18.126 145.319 17.961 144.989 17.829C144.659 17.697 144.285 17.576 143.867 17.466C143.471 17.334 143.075 17.213 142.679 17.103C142.085 16.949 141.502 16.773 140.93 16.575C140.358 16.377 139.841 16.124 139.379 15.816C138.917 15.486 138.543 15.079 138.257 14.595C137.971 14.089 137.828 13.451 137.828 12.681C137.828 11.779 138.059 10.998 138.521 10.338C138.983 9.67798 139.632 9.17198 140.468 8.81998C141.304 8.44598 142.283 8.25898 143.405 8.25898C143.889 8.25898 144.34 8.29198 144.758 8.35798C145.176 8.42398 145.572 8.53398 145.946 8.68798C146.342 8.81998 146.716 8.98498 147.068 9.18298C147.42 9.35898 147.761 9.57899 148.091 9.84299C148.487 10.107 148.696 10.393 148.718 10.701C148.74 11.009 148.619 11.328 148.355 11.658C148.157 11.944 147.937 12.131 147.695 12.219C147.453 12.285 147.211 12.219 146.969 12.021C146.617 11.757 146.243 11.526 145.847 11.328C145.451 11.13 145.044 10.965 144.626 10.833C144.208 10.701 143.779 10.635 143.339 10.635C142.789 10.635 142.294 10.723 141.854 10.899C141.436 11.053 141.106 11.295 140.864 11.625C140.644 11.933 140.534 12.285 140.534 12.681C140.534 13.033 140.622 13.319 140.798 13.539C140.996 13.759 141.238 13.946 141.524 14.1C141.832 14.254 142.184 14.397 142.58 14.529C142.998 14.639 143.427 14.749 143.867 14.859C144.505 15.013 145.154 15.2 145.814 15.42C146.496 15.618 147.101 15.893 147.629 16.245C148.179 16.575 148.619 17.026 148.949 17.598C149.301 18.148 149.477 18.885 149.477 19.809C149.477 21.261 148.905 22.405 147.761 23.241C146.617 24.077 145.099 24.495 143.207 24.495Z" fill="url(#paint6_linear_26_887)"/>
<path d="M143.207 24.495C142.679 24.495 142.129 24.44 141.557 24.33C140.985 24.22 140.424 24.066 139.874 23.868C139.346 23.648 138.873 23.395 138.455 23.109C138.059 22.823 137.762 22.504 137.564 22.152C137.454 21.932 137.388 21.734 137.366 21.558C137.344 21.36 137.377 21.173 137.465 20.997C137.553 20.821 137.685 20.645 137.861 20.469C138.081 20.205 138.301 20.084 138.521 20.106C138.741 20.106 139.016 20.249 139.346 20.535C139.588 20.689 139.874 20.865 140.204 21.063C140.534 21.239 140.875 21.404 141.227 21.558C141.579 21.69 141.931 21.811 142.283 21.921C142.657 22.009 143.02 22.053 143.372 22.053C144.384 22.053 145.198 21.866 145.814 21.492C146.43 21.096 146.738 20.579 146.738 19.941C146.738 19.567 146.661 19.248 146.507 18.984C146.353 18.72 146.144 18.5 145.88 18.324C145.616 18.126 145.319 17.961 144.989 17.829C144.659 17.697 144.285 17.576 143.867 17.466C143.471 17.334 143.075 17.213 142.679 17.103C142.085 16.949 141.502 16.773 140.93 16.575C140.358 16.377 139.841 16.124 139.379 15.816C138.917 15.486 138.543 15.079 138.257 14.595C137.971 14.089 137.828 13.451 137.828 12.681C137.828 11.779 138.059 10.998 138.521 10.338C138.983 9.67798 139.632 9.17198 140.468 8.81998C141.304 8.44598 142.283 8.25898 143.405 8.25898C143.889 8.25898 144.34 8.29198 144.758 8.35798C145.176 8.42398 145.572 8.53398 145.946 8.68798C146.342 8.81998 146.716 8.98498 147.068 9.18298C147.42 9.35898 147.761 9.57899 148.091 9.84299C148.487 10.107 148.696 10.393 148.718 10.701C148.74 11.009 148.619 11.328 148.355 11.658C148.157 11.944 147.937 12.131 147.695 12.219C147.453 12.285 147.211 12.219 146.969 12.021C146.617 11.757 146.243 11.526 145.847 11.328C145.451 11.13 145.044 10.965 144.626 10.833C144.208 10.701 143.779 10.635 143.339 10.635C142.789 10.635 142.294 10.723 141.854 10.899C141.436 11.053 141.106 11.295 140.864 11.625C140.644 11.933 140.534 12.285 140.534 12.681C140.534 13.033 140.622 13.319 140.798 13.539C140.996 13.759 141.238 13.946 141.524 14.1C141.832 14.254 142.184 14.397 142.58 14.529C142.998 14.639 143.427 14.749 143.867 14.859C144.505 15.013 145.154 15.2 145.814 15.42C146.496 15.618 147.101 15.893 147.629 16.245C148.179 16.575 148.619 17.026 148.949 17.598C149.301 18.148 149.477 18.885 149.477 19.809C149.477 21.261 148.905 22.405 147.761 23.241C146.617 24.077 145.099 24.495 143.207 24.495Z" fill="#8C6193" fill-opacity="0.25"/>
<path d="M158.75 24.495C157.43 24.495 156.253 24.275 155.219 23.835C154.185 23.395 153.305 22.801 152.579 22.053C151.875 21.283 151.336 20.403 150.962 19.413C150.588 18.423 150.401 17.356 150.401 16.212C150.401 14.694 150.753 13.341 151.457 12.153C152.161 10.965 153.129 10.03 154.361 9.34798C155.615 8.64398 157.045 8.29199 158.651 8.29199C159.751 8.29199 160.73 8.46798 161.588 8.81998C162.468 9.14998 163.216 9.60098 163.832 10.173C164.448 10.745 164.921 11.383 165.251 12.087C165.581 12.791 165.746 13.495 165.746 14.199C165.746 15.321 165.482 16.113 164.954 16.575C164.426 17.015 163.777 17.235 163.007 17.235H153.47C153.448 18.203 153.701 19.039 154.229 19.743C154.779 20.425 155.461 20.953 156.275 21.327C157.111 21.701 157.947 21.888 158.783 21.888C159.399 21.888 159.927 21.855 160.367 21.789C160.807 21.723 161.192 21.635 161.522 21.525C161.852 21.415 162.138 21.305 162.38 21.195C162.622 21.085 162.831 20.975 163.007 20.865C163.205 20.755 163.392 20.678 163.568 20.634C163.766 20.59 163.953 20.612 164.129 20.7C164.327 20.766 164.481 20.909 164.591 21.129C164.723 21.305 164.811 21.47 164.855 21.624C164.899 21.778 164.921 21.943 164.921 22.119C164.921 22.427 164.657 22.768 164.129 23.142C163.601 23.516 162.864 23.835 161.918 24.099C160.994 24.363 159.938 24.495 158.75 24.495ZM153.47 15.288H161.753C162.171 15.288 162.479 15.233 162.677 15.123C162.897 15.013 163.007 14.716 163.007 14.232C163.007 13.616 162.82 13.066 162.446 12.582C162.072 12.076 161.555 11.669 160.895 11.361C160.257 11.053 159.52 10.899 158.684 10.899C157.716 10.899 156.825 11.097 156.011 11.493C155.219 11.867 154.592 12.384 154.13 13.044C153.668 13.704 153.448 14.452 153.47 15.288Z" fill="url(#paint7_linear_26_887)"/>
<path d="M158.75 24.495C157.43 24.495 156.253 24.275 155.219 23.835C154.185 23.395 153.305 22.801 152.579 22.053C151.875 21.283 151.336 20.403 150.962 19.413C150.588 18.423 150.401 17.356 150.401 16.212C150.401 14.694 150.753 13.341 151.457 12.153C152.161 10.965 153.129 10.03 154.361 9.34798C155.615 8.64398 157.045 8.29199 158.651 8.29199C159.751 8.29199 160.73 8.46798 161.588 8.81998C162.468 9.14998 163.216 9.60098 163.832 10.173C164.448 10.745 164.921 11.383 165.251 12.087C165.581 12.791 165.746 13.495 165.746 14.199C165.746 15.321 165.482 16.113 164.954 16.575C164.426 17.015 163.777 17.235 163.007 17.235H153.47C153.448 18.203 153.701 19.039 154.229 19.743C154.779 20.425 155.461 20.953 156.275 21.327C157.111 21.701 157.947 21.888 158.783 21.888C159.399 21.888 159.927 21.855 160.367 21.789C160.807 21.723 161.192 21.635 161.522 21.525C161.852 21.415 162.138 21.305 162.38 21.195C162.622 21.085 162.831 20.975 163.007 20.865C163.205 20.755 163.392 20.678 163.568 20.634C163.766 20.59 163.953 20.612 164.129 20.7C164.327 20.766 164.481 20.909 164.591 21.129C164.723 21.305 164.811 21.47 164.855 21.624C164.899 21.778 164.921 21.943 164.921 22.119C164.921 22.427 164.657 22.768 164.129 23.142C163.601 23.516 162.864 23.835 161.918 24.099C160.994 24.363 159.938 24.495 158.75 24.495ZM153.47 15.288H161.753C162.171 15.288 162.479 15.233 162.677 15.123C162.897 15.013 163.007 14.716 163.007 14.232C163.007 13.616 162.82 13.066 162.446 12.582C162.072 12.076 161.555 11.669 160.895 11.361C160.257 11.053 159.52 10.899 158.684 10.899C157.716 10.899 156.825 11.097 156.011 11.493C155.219 11.867 154.592 12.384 154.13 13.044C153.668 13.704 153.448 14.452 153.47 15.288Z" fill="#8C6193" fill-opacity="0.25"/>
<path d="M29.5353 2.91972C27.5601 1.83514 25.3176 1.35867 23.0875 1.53622C22.1689 1.60936 21.6087 2.47609 21.7592 3.3175C21.9147 4.18619 22.7284 4.70632 23.5348 4.66132C25.0889 4.57461 26.6438 4.9238 28.0199 5.67943C29.6935 6.59845 31.0017 8.06318 31.7265 9.82961C32.4513 11.596 32.549 13.5575 32.0032 15.3872C31.4574 17.2169 30.3012 18.8043 28.7271 19.885C27.1531 20.9657 25.2562 21.4745 23.3526 21.3264C21.449 21.1784 19.6536 20.3826 18.2655 19.0716C16.8774 17.7605 15.9805 16.0134 15.7241 14.1214C15.5133 12.5657 15.746 10.9892 16.3853 9.57003C16.717 8.83357 16.5239 7.88738 15.7691 7.43019C15.0379 6.98737 14.0278 7.19879 13.6295 8.02983C12.6626 10.0472 12.3016 12.3112 12.6042 14.5441C12.9572 17.1495 14.1923 19.5552 16.1037 21.3604C18.0151 23.1657 20.4873 24.2616 23.1085 24.4654C25.7298 24.6692 28.3417 23.9687 30.5092 22.4806C32.6766 20.9924 34.2687 18.8066 35.0202 16.2871C35.7717 13.7677 35.6373 11.0668 34.6392 8.63445C33.6412 6.20211 31.8398 4.18519 29.5353 2.91972Z" fill="url(#paint8_linear_26_887)"/>
<path d="M29.5353 2.91972C27.5601 1.83514 25.3176 1.35867 23.0875 1.53622C22.1689 1.60936 21.6087 2.47609 21.7592 3.3175C21.9147 4.18619 22.7284 4.70632 23.5348 4.66132C25.0889 4.57461 26.6438 4.9238 28.0199 5.67943C29.6935 6.59845 31.0017 8.06318 31.7265 9.82961C32.4513 11.596 32.549 13.5575 32.0032 15.3872C31.4574 17.2169 30.3012 18.8043 28.7271 19.885C27.1531 20.9657 25.2562 21.4745 23.3526 21.3264C21.449 21.1784 19.6536 20.3826 18.2655 19.0716C16.8774 17.7605 15.9805 16.0134 15.7241 14.1214C15.5133 12.5657 15.746 10.9892 16.3853 9.57003C16.717 8.83357 16.5239 7.88738 15.7691 7.43019C15.0379 6.98737 14.0278 7.19879 13.6295 8.02983C12.6626 10.0472 12.3016 12.3112 12.6042 14.5441C12.9572 17.1495 14.1923 19.5552 16.1037 21.3604C18.0151 23.1657 20.4873 24.2616 23.1085 24.4654C25.7298 24.6692 28.3417 23.9687 30.5092 22.4806C32.6766 20.9924 34.2687 18.8066 35.0202 16.2871C35.7717 13.7677 35.6373 11.0668 34.6392 8.63445C33.6412 6.20211 31.8398 4.18519 29.5353 2.91972Z" fill="#8C6193" fill-opacity="0.25"/>
<path d="M6.46479 23.0802C8.43994 24.1648 10.6825 24.6413 12.9125 24.4638C13.8312 24.3906 14.3914 23.5239 14.2408 22.6825C14.0853 21.8138 13.2717 21.2936 12.4652 21.3386C10.9111 21.4254 9.35629 21.0762 7.98019 20.3205C6.30656 19.4015 4.99836 17.9368 4.27355 16.1704C3.54874 14.4039 3.45108 12.4425 3.99685 10.6128C4.54261 8.7831 5.69885 7.19566 7.27291 6.11495C8.84698 5.03424 10.7438 4.52551 12.6474 4.67353C14.551 4.82155 16.3464 5.61737 17.7345 6.9284C19.1226 8.23944 20.0196 9.98652 20.276 11.8786C20.4868 13.4343 20.254 15.0108 19.6148 16.4299C19.2831 17.1664 19.4761 18.1126 20.231 18.5698C20.9621 19.0126 21.9722 18.8012 22.3705 17.9701C23.3374 15.9528 23.6984 13.6888 23.3959 11.4558C23.0428 8.8505 21.8077 6.44479 19.8964 4.63952C17.985 2.83425 15.5127 1.73842 12.8915 1.53461C10.2703 1.33079 7.65835 2.0313 5.49089 3.51942C3.32343 5.00754 1.73132 7.19341 0.979808 9.71286C0.228299 12.2323 0.362771 14.9332 1.36082 17.3655C2.35887 19.7979 4.16024 21.8148 6.46479 23.0802Z" fill="url(#paint9_linear_26_887)"/>
<path d="M6.46479 23.0802C8.43994 24.1648 10.6825 24.6413 12.9125 24.4638C13.8312 24.3906 14.3914 23.5239 14.2408 22.6825C14.0853 21.8138 13.2717 21.2936 12.4652 21.3386C10.9111 21.4254 9.35629 21.0762 7.98019 20.3205C6.30656 19.4015 4.99836 17.9368 4.27355 16.1704C3.54874 14.4039 3.45108 12.4425 3.99685 10.6128C4.54261 8.7831 5.69885 7.19566 7.27291 6.11495C8.84698 5.03424 10.7438 4.52551 12.6474 4.67353C14.551 4.82155 16.3464 5.61737 17.7345 6.9284C19.1226 8.23944 20.0196 9.98652 20.276 11.8786C20.4868 13.4343 20.254 15.0108 19.6148 16.4299C19.2831 17.1664 19.4761 18.1126 20.231 18.5698C20.9621 19.0126 21.9722 18.8012 22.3705 17.9701C23.3374 15.9528 23.6984 13.6888 23.3959 11.4558C23.0428 8.8505 21.8077 6.44479 19.8964 4.63952C17.985 2.83425 15.5127 1.73842 12.8915 1.53461C10.2703 1.33079 7.65835 2.0313 5.49089 3.51942C3.32343 5.00754 1.73132 7.19341 0.979808 9.71286C0.228299 12.2323 0.362771 14.9332 1.36082 17.3655C2.35887 19.7979 4.16024 21.8148 6.46479 23.0802Z" fill="#8C6193" fill-opacity="0.25"/>
<defs>
<linearGradient id="paint0_linear_26_887" x1="0.499999" y1="24.5" x2="166.144" y2="4.18367" gradientUnits="userSpaceOnUse">
<stop offset="0.0001" stop-color="#B387AE"/>
<stop offset="0.499745" stop-color="#DF98C3"/>
<stop offset="1" stop-color="#FDA4CF"/>
</linearGradient>
<linearGradient id="paint1_linear_26_887" x1="0.499999" y1="24.5" x2="166.144" y2="4.18367" gradientUnits="userSpaceOnUse">
<stop offset="0.0001" stop-color="#B387AE"/>
<stop offset="0.499745" stop-color="#DF98C3"/>
<stop offset="1" stop-color="#FDA4CF"/>
</linearGradient>
<linearGradient id="paint2_linear_26_887" x1="0.499999" y1="24.5" x2="166.144" y2="4.18367" gradientUnits="userSpaceOnUse">
<stop offset="0.0001" stop-color="#B387AE"/>
<stop offset="0.499745" stop-color="#DF98C3"/>
<stop offset="1" stop-color="#FDA4CF"/>
</linearGradient>
<linearGradient id="paint3_linear_26_887" x1="0.499999" y1="24.5" x2="166.144" y2="4.18367" gradientUnits="userSpaceOnUse">
<stop offset="0.0001" stop-color="#B387AE"/>
<stop offset="0.499745" stop-color="#DF98C3"/>
<stop offset="1" stop-color="#FDA4CF"/>
</linearGradient>
<linearGradient id="paint4_linear_26_887" x1="0.499999" y1="24.5" x2="166.144" y2="4.18367" gradientUnits="userSpaceOnUse">
<stop offset="0.0001" stop-color="#B387AE"/>
<stop offset="0.499745" stop-color="#DF98C3"/>
<stop offset="1" stop-color="#FDA4CF"/>
</linearGradient>
<linearGradient id="paint5_linear_26_887" x1="0.499999" y1="24.5" x2="166.144" y2="4.18367" gradientUnits="userSpaceOnUse">
<stop offset="0.0001" stop-color="#B387AE"/>
<stop offset="0.499745" stop-color="#DF98C3"/>
<stop offset="1" stop-color="#FDA4CF"/>
</linearGradient>
<linearGradient id="paint6_linear_26_887" x1="0.499999" y1="24.5" x2="166.144" y2="4.18367" gradientUnits="userSpaceOnUse">
<stop offset="0.0001" stop-color="#B387AE"/>
<stop offset="0.499745" stop-color="#DF98C3"/>
<stop offset="1" stop-color="#FDA4CF"/>
</linearGradient>
<linearGradient id="paint7_linear_26_887" x1="0.499999" y1="24.5" x2="166.144" y2="4.18367" gradientUnits="userSpaceOnUse">
<stop offset="0.0001" stop-color="#B387AE"/>
<stop offset="0.499745" stop-color="#DF98C3"/>
<stop offset="1" stop-color="#FDA4CF"/>
</linearGradient>
<linearGradient id="paint8_linear_26_887" x1="0.499999" y1="24.5" x2="166.144" y2="4.18367" gradientUnits="userSpaceOnUse">
<stop offset="0.0001" stop-color="#B387AE"/>
<stop offset="0.499745" stop-color="#DF98C3"/>
<stop offset="1" stop-color="#FDA4CF"/>
</linearGradient>
<linearGradient id="paint9_linear_26_887" x1="0.499999" y1="24.5" x2="166.144" y2="4.18367" gradientUnits="userSpaceOnUse">
<stop offset="0.0001" stop-color="#B387AE"/>
<stop offset="0.499745" stop-color="#DF98C3"/>
<stop offset="1" stop-color="#FDA4CF"/>
</linearGradient>
</defs>
</svg>
