<svg width="16" height="15" viewBox="0 0 16 15" fill="none" xmlns="http://www.w3.org/2000/svg">
<g id="Google - Original" clip-path="url(#clip0_26_896)">
<path id="Vector" d="M15.3538 7.67276C15.3538 7.16293 15.3124 6.65035 15.2243 6.14879H8.15002V9.0369H12.2011C12.033 9.96837 11.4929 10.7924 10.7019 11.316V13.1899H13.1188C14.5381 11.8837 15.3538 9.95459 15.3538 7.67276Z" fill="#4285F4"/>
<path id="Vector_2" d="M8.14994 15.0005C10.1727 15.0005 11.8786 14.3364 13.1215 13.1899L10.7046 11.316C10.0322 11.7734 9.16409 12.0325 8.1527 12.0325C6.19606 12.0325 4.53704 10.7124 3.94178 8.93768H1.44775V10.8695C2.72095 13.4021 5.31419 15.0005 8.14994 15.0005Z" fill="#34A853"/>
<path id="Vector_3" d="M3.93911 8.93768C3.62495 8.00621 3.62495 6.99757 3.93911 6.0661V4.13426H1.44784C0.384087 6.2535 0.384087 8.75028 1.44784 10.8695L3.93911 8.93768Z" fill="#FBBC04"/>
<path id="Vector_4" d="M8.14994 2.96854C9.2192 2.952 10.2526 3.35435 11.027 4.09292L13.1683 1.95164C11.8124 0.67844 10.0129 -0.0215412 8.14994 0.000505416C5.31419 0.000505416 2.72095 1.59889 1.44775 4.13425L3.93903 6.06609C4.53153 4.28858 6.1933 2.96854 8.14994 2.96854Z" fill="#EA4335"/>
</g>
<defs>
<clipPath id="clip0_26_896">
<rect width="15" height="15" fill="white" transform="translate(0.5)"/>
</clipPath>
</defs>
</svg>
