<svg width="35" height="24" viewBox="0 0 35 24" fill="none" xmlns="http://www.w3.org/2000/svg">
<g id="Logo">
<path d="M29.0353 1.98672C27.0601 0.902138 24.8176 0.425675 22.5875 0.60322C21.6689 0.676358 21.1087 1.54309 21.2592 2.3845C21.4147 3.25319 22.2284 3.77332 23.0348 3.72832C24.5889 3.64161 26.1438 3.9908 27.5199 4.74643C29.1935 5.66545 30.5017 7.13019 31.2265 8.89661C31.9513 10.663 32.049 12.6245 31.5032 14.4542C30.9574 16.2839 29.8012 17.8713 28.2271 18.952C26.6531 20.0327 24.7562 20.5415 22.8526 20.3934C20.949 20.2454 19.1536 19.4496 17.7655 18.1386C16.3774 16.8275 15.4805 15.0805 15.2241 13.1884C15.0133 11.6327 15.246 10.0562 15.8853 8.63703C16.217 7.90057 16.0239 6.95438 15.2691 6.49719C14.5379 6.05437 13.5278 6.26579 13.1295 7.09683C12.1626 9.1142 11.8016 11.3782 12.1042 13.6111C12.4572 16.2165 13.6923 18.6222 15.6037 20.4274C17.5151 22.2327 19.9873 23.3286 22.6085 23.5324C25.2298 23.7362 27.8417 23.0357 30.0092 21.5476C32.1766 20.0594 33.7687 17.8736 34.5202 15.3541C35.2717 12.8347 35.1373 10.1338 34.1392 7.70145C33.1412 5.26911 31.3398 3.25219 29.0353 1.98672Z" fill="url(#paint0_linear_29_932)"/>
<path d="M29.0353 1.98672C27.0601 0.902138 24.8176 0.425675 22.5875 0.60322C21.6689 0.676358 21.1087 1.54309 21.2592 2.3845C21.4147 3.25319 22.2284 3.77332 23.0348 3.72832C24.5889 3.64161 26.1438 3.9908 27.5199 4.74643C29.1935 5.66545 30.5017 7.13019 31.2265 8.89661C31.9513 10.663 32.049 12.6245 31.5032 14.4542C30.9574 16.2839 29.8012 17.8713 28.2271 18.952C26.6531 20.0327 24.7562 20.5415 22.8526 20.3934C20.949 20.2454 19.1536 19.4496 17.7655 18.1386C16.3774 16.8275 15.4805 15.0805 15.2241 13.1884C15.0133 11.6327 15.246 10.0562 15.8853 8.63703C16.217 7.90057 16.0239 6.95438 15.2691 6.49719C14.5379 6.05437 13.5278 6.26579 13.1295 7.09683C12.1626 9.1142 11.8016 11.3782 12.1042 13.6111C12.4572 16.2165 13.6923 18.6222 15.6037 20.4274C17.5151 22.2327 19.9873 23.3286 22.6085 23.5324C25.2298 23.7362 27.8417 23.0357 30.0092 21.5476C32.1766 20.0594 33.7687 17.8736 34.5202 15.3541C35.2717 12.8347 35.1373 10.1338 34.1392 7.70145C33.1412 5.26911 31.3398 3.25219 29.0353 1.98672Z" fill="#8C6193" fill-opacity="0.25"/>
<path d="M5.96479 22.1472C7.93994 23.2318 10.1825 23.7083 12.4125 23.5308C13.3312 23.4576 13.8914 22.5909 13.7408 21.7495C13.5853 20.8808 12.7717 20.3606 11.9652 20.4056C10.4111 20.4924 8.85629 20.1432 7.48019 19.3875C5.80656 18.4685 4.49836 17.0038 3.77355 15.2374C3.04874 13.4709 2.95108 11.5095 3.49685 9.67979C4.04261 7.8501 5.19885 6.26266 6.77291 5.18195C8.34698 4.10124 10.2438 3.59251 12.1474 3.74053C14.051 3.88855 15.8464 4.68437 17.2345 5.9954C18.6226 7.30644 19.5196 9.05352 19.776 10.9456C19.9868 12.5013 19.754 14.0778 19.1148 15.4969C18.7831 16.2334 18.9761 17.1796 19.731 17.6368C20.4621 18.0796 21.4722 17.8682 21.8705 17.0371C22.8374 15.0198 23.1984 12.7558 22.8959 10.5228C22.5428 7.9175 21.3077 5.51179 19.3964 3.70652C17.485 1.90125 15.0127 0.805422 12.3915 0.601606C9.77027 0.397791 7.15835 1.0983 4.99089 2.58642C2.82343 4.07454 1.23132 6.26041 0.479808 8.77986C-0.271701 11.2993 -0.137229 14.0002 0.860822 16.4325C1.85887 18.8649 3.66024 20.8818 5.96479 22.1472Z" fill="url(#paint1_linear_29_932)"/>
<path d="M5.96479 22.1472C7.93994 23.2318 10.1825 23.7083 12.4125 23.5308C13.3312 23.4576 13.8914 22.5909 13.7408 21.7495C13.5853 20.8808 12.7717 20.3606 11.9652 20.4056C10.4111 20.4924 8.85629 20.1432 7.48019 19.3875C5.80656 18.4685 4.49836 17.0038 3.77355 15.2374C3.04874 13.4709 2.95108 11.5095 3.49685 9.67979C4.04261 7.8501 5.19885 6.26266 6.77291 5.18195C8.34698 4.10124 10.2438 3.59251 12.1474 3.74053C14.051 3.88855 15.8464 4.68437 17.2345 5.9954C18.6226 7.30644 19.5196 9.05352 19.776 10.9456C19.9868 12.5013 19.754 14.0778 19.1148 15.4969C18.7831 16.2334 18.9761 17.1796 19.731 17.6368C20.4621 18.0796 21.4722 17.8682 21.8705 17.0371C22.8374 15.0198 23.1984 12.7558 22.8959 10.5228C22.5428 7.9175 21.3077 5.51179 19.3964 3.70652C17.485 1.90125 15.0127 0.805422 12.3915 0.601606C9.77027 0.397791 7.15835 1.0983 4.99089 2.58642C2.82343 4.07454 1.23132 6.26041 0.479808 8.77986C-0.271701 11.2993 -0.137229 14.0002 0.860822 16.4325C1.85887 18.8649 3.66024 20.8818 5.96479 22.1472Z" fill="#8C6193" fill-opacity="0.25"/>
</g>
<defs>
<linearGradient id="paint0_linear_29_932" x1="1.23117e-06" y1="23.567" x2="165.644" y2="3.2507" gradientUnits="userSpaceOnUse">
<stop offset="0.0001" stop-color="#B387AE"/>
<stop offset="0.499745" stop-color="#DF98C3"/>
<stop offset="1" stop-color="#FDA4CF"/>
</linearGradient>
<linearGradient id="paint1_linear_29_932" x1="1.23117e-06" y1="23.567" x2="165.644" y2="3.2507" gradientUnits="userSpaceOnUse">
<stop offset="0.0001" stop-color="#B387AE"/>
<stop offset="0.499745" stop-color="#DF98C3"/>
<stop offset="1" stop-color="#FDA4CF"/>
</linearGradient>
</defs>
</svg>
