<svg xmlns="http://www.w3.org/2000/svg" height="40" viewBox="0 -960 960 960" width="40"><path d="M196.666-92q-43.7 0-74.183-30.483Q92-152.966 92-196.666v-566.668q0-43.975 30.483-74.654 30.483-30.679 74.183-30.679h237.001q21.833 0 37.083 15.676 15.25 15.675 15.25 37.5 0 21.824-15.25 36.991-15.25 15.166-37.083 15.166H196.666v566.668h237.001q21.833 0 37.083 15.283Q486-166.099 486-144.216q0 21.883-15.25 37.049Q455.5-92 433.667-92H196.666Zm472.335-335.667H405.666q-21.833 0-37.083-15.284-15.25-15.283-15.25-37.166 0-21.883 15.25-37.049 15.25-15.167 37.083-15.167h262.002l-60.001-60q-15.333-15.473-15-37.07Q593.001-651 608.334-666q15.333-15.999 36.601-15.666 21.268.333 37.399 16L832-516q14.667 15.909 14.667 36.788 0 20.879-14.667 36.545l-149 149q-15.2 15.666-36.599 15.666-21.4 0-36.994-15.666-15.073-15.333-15.434-36.917-.361-21.583 15.694-37.083l59.334-60Z" fill="#926296"/></svg>