<svg width="35" height="24" viewBox="0 0 35 24" fill="none" xmlns="http://www.w3.org/2000/svg">
<g id="logo" clip-path="url(#clip0_29_1388)">
<g id="Logo">
<path d="M29.0353 1.98666C27.0601 0.902077 24.8176 0.425614 22.5875 0.603159C21.6689 0.676297 21.1087 1.54303 21.2592 2.38444C21.4147 3.25313 22.2284 3.77326 23.0348 3.72826C24.5889 3.64155 26.1438 3.99073 27.5199 4.74637C29.1935 5.66539 30.5017 7.13012 31.2265 8.89655C31.9513 10.663 32.049 12.6244 31.5032 14.4541C30.9574 16.2838 29.8012 17.8712 28.2271 18.952C26.6531 20.0327 24.7562 20.5414 22.8526 20.3934C20.949 20.2454 19.1536 19.4495 17.7655 18.1385C16.3774 16.8275 15.4805 15.0804 15.2241 13.1883C15.0133 11.6326 15.246 10.0561 15.8853 8.63697C16.217 7.90051 16.0239 6.95432 15.2691 6.49713C14.5379 6.05431 13.5278 6.26573 13.1295 7.09677C12.1626 9.11414 11.8016 11.3781 12.1042 13.6111C12.4572 16.2164 13.6923 18.6221 15.6037 20.4274C17.5151 22.2327 19.9873 23.3285 22.6085 23.5323C25.2298 23.7361 27.8417 23.0356 30.0092 21.5475C32.1766 20.0594 33.7687 17.8735 34.5202 15.3541C35.2717 12.8346 35.1373 10.1337 34.1392 7.70139C33.1412 5.26905 31.3398 3.25213 29.0353 1.98666Z" fill="url(#paint0_linear_29_1388)"/>
<path d="M29.0353 1.98666C27.0601 0.902077 24.8176 0.425614 22.5875 0.603159C21.6689 0.676297 21.1087 1.54303 21.2592 2.38444C21.4147 3.25313 22.2284 3.77326 23.0348 3.72826C24.5889 3.64155 26.1438 3.99073 27.5199 4.74637C29.1935 5.66539 30.5017 7.13012 31.2265 8.89655C31.9513 10.663 32.049 12.6244 31.5032 14.4541C30.9574 16.2838 29.8012 17.8712 28.2271 18.952C26.6531 20.0327 24.7562 20.5414 22.8526 20.3934C20.949 20.2454 19.1536 19.4495 17.7655 18.1385C16.3774 16.8275 15.4805 15.0804 15.2241 13.1883C15.0133 11.6326 15.246 10.0561 15.8853 8.63697C16.217 7.90051 16.0239 6.95432 15.2691 6.49713C14.5379 6.05431 13.5278 6.26573 13.1295 7.09677C12.1626 9.11414 11.8016 11.3781 12.1042 13.6111C12.4572 16.2164 13.6923 18.6221 15.6037 20.4274C17.5151 22.2327 19.9873 23.3285 22.6085 23.5323C25.2298 23.7361 27.8417 23.0356 30.0092 21.5475C32.1766 20.0594 33.7687 17.8735 34.5202 15.3541C35.2717 12.8346 35.1373 10.1337 34.1392 7.70139C33.1412 5.26905 31.3398 3.25213 29.0353 1.98666Z" fill="#8C6193" fill-opacity="0.25"/>
<path d="M5.96479 22.1472C7.93994 23.2318 10.1825 23.7082 12.4125 23.5307C13.3312 23.4576 13.8914 22.5908 13.7408 21.7494C13.5853 20.8807 12.7717 20.3606 11.9652 20.4056C10.4111 20.4923 8.85629 20.1431 7.48019 19.3875C5.80656 18.4685 4.49836 17.0037 3.77355 15.2373C3.04874 13.4709 2.95108 11.5094 3.49685 9.67973C4.04261 7.85004 5.19885 6.2626 6.77291 5.18189C8.34698 4.10118 10.2438 3.59245 12.1474 3.74047C14.051 3.88848 15.8464 4.68431 17.2345 5.99534C18.6226 7.30638 19.5196 9.05346 19.776 10.9455C19.9868 12.5012 19.754 14.0777 19.1148 15.4969C18.7831 16.2333 18.9761 17.1795 19.731 17.6367C20.4621 18.0795 21.4722 17.8681 21.8705 17.0371C22.8374 15.0197 23.1984 12.7557 22.8959 10.5228C22.5428 7.91744 21.3077 5.51173 19.3964 3.70646C17.485 1.90119 15.0127 0.805361 12.3915 0.601545C9.77027 0.39773 7.15835 1.09824 4.99089 2.58636C2.82343 4.07448 1.23132 6.26035 0.479808 8.77979C-0.271701 11.2992 -0.137229 14.0001 0.860822 16.4325C1.85887 18.8648 3.66024 20.8817 5.96479 22.1472Z" fill="url(#paint1_linear_29_1388)"/>
<path d="M5.96479 22.1472C7.93994 23.2318 10.1825 23.7082 12.4125 23.5307C13.3312 23.4576 13.8914 22.5908 13.7408 21.7494C13.5853 20.8807 12.7717 20.3606 11.9652 20.4056C10.4111 20.4923 8.85629 20.1431 7.48019 19.3875C5.80656 18.4685 4.49836 17.0037 3.77355 15.2373C3.04874 13.4709 2.95108 11.5094 3.49685 9.67973C4.04261 7.85004 5.19885 6.2626 6.77291 5.18189C8.34698 4.10118 10.2438 3.59245 12.1474 3.74047C14.051 3.88848 15.8464 4.68431 17.2345 5.99534C18.6226 7.30638 19.5196 9.05346 19.776 10.9455C19.9868 12.5012 19.754 14.0777 19.1148 15.4969C18.7831 16.2333 18.9761 17.1795 19.731 17.6367C20.4621 18.0795 21.4722 17.8681 21.8705 17.0371C22.8374 15.0197 23.1984 12.7557 22.8959 10.5228C22.5428 7.91744 21.3077 5.51173 19.3964 3.70646C17.485 1.90119 15.0127 0.805361 12.3915 0.601545C9.77027 0.39773 7.15835 1.09824 4.99089 2.58636C2.82343 4.07448 1.23132 6.26035 0.479808 8.77979C-0.271701 11.2992 -0.137229 14.0001 0.860822 16.4325C1.85887 18.8648 3.66024 20.8817 5.96479 22.1472Z" fill="#8C6193" fill-opacity="0.25"/>
</g>
</g>
<defs>
<linearGradient id="paint0_linear_29_1388" x1="-3.64269e-06" y1="23.567" x2="35.4292" y2="1.69528" gradientUnits="userSpaceOnUse">
<stop offset="0.0001" stop-color="#B387AE"/>
<stop offset="0.499745" stop-color="#DF98C3"/>
<stop offset="1" stop-color="#FDA4CF"/>
</linearGradient>
<linearGradient id="paint1_linear_29_1388" x1="-3.64269e-06" y1="23.567" x2="35.4292" y2="1.69528" gradientUnits="userSpaceOnUse">
<stop offset="0.0001" stop-color="#B387AE"/>
<stop offset="0.499745" stop-color="#DF98C3"/>
<stop offset="1" stop-color="#FDA4CF"/>
</linearGradient>
<clipPath id="clip0_29_1388">
<rect width="35" height="24" fill="white"/>
</clipPath>
</defs>
</svg>
