<svg width="19" height="19" viewBox="0 0 19 19" fill="none" xmlns="http://www.w3.org/2000/svg">
<g id="open_in_new">
<mask id="mask0_140_320" style="mask-type:alpha" maskUnits="userSpaceOnUse" x="0" y="0" width="19" height="19">
<rect id="Bounding box" width="19" height="19" fill="#D9D9D9"/>
</mask>
<g mask="url(#mask0_140_320)">
<path id="open_in_new_2" d="M3.95833 16.625C3.52292 16.625 3.15017 16.47 2.8401 16.1599C2.53003 15.8498 2.375 15.4771 2.375 15.0417V3.95833C2.375 3.52292 2.53003 3.15017 2.8401 2.8401C3.15017 2.53003 3.52292 2.375 3.95833 2.375H9.5V3.95833H3.95833V15.0417H15.0417V9.5H16.625V15.0417C16.625 15.4771 16.47 15.8498 16.1599 16.1599C15.8498 16.47 15.4771 16.625 15.0417 16.625H3.95833ZM7.67917 12.4292L6.57083 11.3208L13.9333 3.95833H11.0833V2.375H16.625V7.91667H15.0417V5.06667L7.67917 12.4292Z" fill="#926296"/>
</g>
</g>
</svg>
