<svg width="20" height="20" viewBox="0 0 20 20" fill="none" xmlns="http://www.w3.org/2000/svg">
<g id="person">
<mask id="mask0_98_402" style="mask-type:alpha" maskUnits="userSpaceOnUse" x="0" y="0" width="20" height="20">
<rect id="Bounding box" width="20" height="20" fill="#D9D9D9"/>
</mask>
<g mask="url(#mask0_98_402)">
<path id="Subtract" fill-rule="evenodd" clip-rule="evenodd" d="M7.64575 9.021C8.29853 9.67377 9.08325 10.0002 9.99992 10.0002C10.9166 10.0002 11.7013 9.67377 12.3541 9.021C13.0069 8.36822 13.3333 7.5835 13.3333 6.66683C13.3333 5.75016 13.0069 4.96544 12.3541 4.31266C11.7013 3.65988 10.9166 3.3335 9.99992 3.3335C9.08325 3.3335 8.29853 3.65988 7.64575 4.31266C6.99297 4.96544 6.66658 5.75016 6.66658 6.66683C6.66658 7.5835 6.99297 8.36822 7.64575 9.021ZM15 16.6668C15.4583 16.6668 15.8506 16.5036 16.177 16.1772C16.5034 15.8509 16.6666 15.4585 16.6666 15.0002V14.3335C16.6666 13.8613 16.5451 13.4272 16.302 13.0314C16.0589 12.6356 15.736 12.3335 15.3333 12.1252C14.4721 11.6946 13.5971 11.3717 12.7083 11.1564C11.8194 10.9411 10.9166 10.8335 9.99992 10.8335C9.08325 10.8335 8.18047 10.9411 7.29158 11.1564C6.4027 11.3717 5.5277 11.6946 4.66659 12.1252C4.26381 12.3335 3.94089 12.6356 3.69784 13.0314C3.45478 13.4272 3.33325 13.8613 3.33325 14.3335V15.0002C3.33325 15.4585 3.49645 15.8509 3.82284 16.1772C4.14922 16.5036 4.54159 16.6668 4.99992 16.6668H5V15.0002H4.99992V14.3335C4.99992 14.1807 5.03811 14.0418 5.1145 13.9168C5.19089 13.7918 5.29158 13.6946 5.41658 13.6252C6.16658 13.2502 6.92353 12.9689 7.68742 12.7814C8.45131 12.5939 9.22214 12.5002 9.99992 12.5002C10.7777 12.5002 11.5485 12.5939 12.3124 12.7814C13.0763 12.9689 13.8333 13.2502 14.5833 13.6252C14.7083 13.6946 14.8089 13.7918 14.8853 13.9168C14.9617 14.0418 14.9999 14.1807 14.9999 14.3335V15H15V16.6668ZM11.177 7.84391C10.8506 8.1703 10.4583 8.3335 9.99992 8.3335C9.54158 8.3335 9.14922 8.1703 8.82283 7.84391C8.49645 7.51752 8.33325 7.12516 8.33325 6.66683C8.33325 6.2085 8.49645 5.81613 8.82283 5.48975C9.14922 5.16336 9.54158 5.00016 9.99992 5.00016C10.4583 5.00016 10.8506 5.16336 11.177 5.48975C11.5034 5.81613 11.6666 6.2085 11.6666 6.66683C11.6666 7.12516 11.5034 7.51752 11.177 7.84391Z" fill="#926296"/>
</g>
</g>
</svg>
