<svg width="17" height="17" viewBox="0 0 17 17" fill="none" xmlns="http://www.w3.org/2000/svg">
<g id="visibility">
<mask id="mask0_255_728" style="mask-type:alpha" maskUnits="userSpaceOnUse" x="0" y="0" width="17" height="17">
<rect id="Bounding box" width="17" height="17" fill="#D9D9D9"/>
</mask>
<g mask="url(#mask0_255_728)">
<path id="visibility_2" d="M8.50023 11.3333C9.38564 11.3333 10.1382 11.0234 10.758 10.4036C11.3778 9.78377 11.6877 9.03117 11.6877 8.14575C11.6877 7.26033 11.3778 6.50773 10.758 5.88794C10.1382 5.26815 9.38564 4.95825 8.50023 4.95825C7.61481 4.95825 6.86221 5.26815 6.24242 5.88794C5.62262 6.50773 5.31273 7.26033 5.31273 8.14575C5.31273 9.03117 5.62262 9.78377 6.24242 10.4036C6.86221 11.0234 7.61481 11.3333 8.50023 11.3333ZM8.50023 10.0583C7.96898 10.0583 7.51742 9.87231 7.14554 9.50044C6.77367 9.12856 6.58773 8.677 6.58773 8.14575C6.58773 7.6145 6.77367 7.16294 7.14554 6.79106C7.51742 6.41919 7.96898 6.23325 8.50023 6.23325C9.03148 6.23325 9.48304 6.41919 9.85492 6.79106C10.2268 7.16294 10.4127 7.6145 10.4127 8.14575C10.4127 8.677 10.2268 9.12856 9.85492 9.50044C9.48304 9.87231 9.03148 10.0583 8.50023 10.0583ZM8.50023 13.4583C6.85926 13.4583 5.35995 13.0244 4.00231 12.1567C2.64467 11.289 1.61759 10.1173 0.921061 8.64158C0.885645 8.58256 0.862033 8.50877 0.850228 8.42023C0.838422 8.33169 0.83252 8.2402 0.83252 8.14575C0.83252 8.05131 0.838422 7.95981 0.850228 7.87127C0.862033 7.78273 0.885645 7.70895 0.921061 7.64992C1.61759 6.17422 2.64467 5.00252 4.00231 4.13481C5.35995 3.26711 6.85926 2.83325 8.50023 2.83325C10.1412 2.83325 11.6405 3.26711 12.9981 4.13481C14.3558 5.00252 15.3829 6.17422 16.0794 7.64992C16.1148 7.70895 16.1384 7.78273 16.1502 7.87127C16.162 7.95981 16.1679 8.05131 16.1679 8.14575C16.1679 8.2402 16.162 8.33169 16.1502 8.42023C16.1384 8.50877 16.1148 8.58256 16.0794 8.64158C15.3829 10.1173 14.3558 11.289 12.9981 12.1567C11.6405 13.0244 10.1412 13.4583 8.50023 13.4583ZM8.50023 12.0416C9.83426 12.0416 11.0591 11.6904 12.1747 10.9879C13.2903 10.2855 14.1433 9.33811 14.7336 8.14575C14.1433 6.95339 13.2903 6.006 12.1747 5.30356C11.0591 4.60113 9.83426 4.24992 8.50023 4.24992C7.1662 4.24992 5.94137 4.60113 4.82575 5.30356C3.71012 6.006 2.85717 6.95339 2.26689 8.14575C2.85717 9.33811 3.71012 10.2855 4.82575 10.9879C5.94137 11.6904 7.1662 12.0416 8.50023 12.0416Z" fill="white"/>
</g>
</g>
</svg>
